<?xml version="1.0" standalone="no"?>
<!DOCTYPE svg PUBLIC "-//W3C//DTD SVG 1.1//EN" "http://www.w3.org/Graphics/SVG/1.1/DTD/svg11.dtd" >
<svg xmlns="http://www.w3.org/2000/svg" xmlns:xlink="http://www.w3.org/1999/xlink" version="1.1">
<metadata>
Created by FontForge 20170731 at Mon May 15 11:00:00 2000
 By Aleksey,,,
Copyright (c) 1992, 1997 DoubleAlex Design Studio. All rights reserved.
</metadata>
<defs>
<font id="HelveticaCYBold" horiz-adv-x="934" >
  <font-face 
    font-family="Helvetica CY"
    font-weight="700"
    font-stretch="normal"
    units-per-em="2048"
    panose-1="0 0 7 0 0 0 0 0 0 0"
    ascent="1638"
    descent="-410"
    x-height="1110"
    cap-height="1493"
    bbox="-41 -453 1929 1970"
    underline-thickness="155"
    underline-position="-303"
    unicode-range="U+0020-2265"
  />
<missing-glyph horiz-adv-x="1024" 
d="M128 0v1493h768v-1493h-768zM256 128h512v1237h-512v-1237z" />
    <glyph glyph-name=".notdef" horiz-adv-x="1024" 
d="M128 0v1493h768v-1493h-768zM256 128h512v1237h-512v-1237z" />
    <glyph glyph-name=".null" horiz-adv-x="0" 
 />
    <glyph glyph-name="nonmarkingreturn" horiz-adv-x="467" 
 />
    <glyph glyph-name="space" unicode=" " horiz-adv-x="467" 
 />
    <glyph glyph-name="exclam" unicode="!" horiz-adv-x="559" 
d="M440 1063l-73 -637h-111l-68 637v430h252v-430zM440 0h-252v299h252v-299z" />
    <glyph glyph-name="quotedbl" unicode="&#x22;" horiz-adv-x="797" 
d="M713 1227l-72 -264h-90l-72 264v266h234v-266zM315 1227l-69 -264h-92l-70 264v266h231v-266z" />
    <glyph glyph-name="numbersign" unicode="#" 
d="M930 839h-166l-41 -254h160v-231h-199l-55 -354h-178l55 354h-170l-55 -354h-179l56 354h-152v231h189l41 254h-162v232h196l66 415h178l-65 -415l169 2l66 413h176l-65 -415h135v-232zM588 839h-174l-41 -254h172z" />
    <glyph glyph-name="dollar" unicode="$" 
d="M883 428q0 -209 -80 -314t-281 -153v-217h-112v213q-97 19 -126 31q-85 34 -151 116q-96 119 -96 295v27h221q11 -150 70 -219q24 -28 82 -53v487q-160 33 -251 137.5t-91 265.5q0 171 85 280q90 116 257 132v111h112v-111q326 -33 348 -432h-217q0 4 1 12.5t1 12.5
q0 83 -49 149q-41 56 -84 64v-439q173 -57 257 -137q104 -100 104 -258zM410 868v402q-131 -34 -131 -217q0 -128 131 -185zM662 379q0 70 -37 129q-39 64 -103 82v-430q140 58 140 219z" />
    <glyph glyph-name="percent" unicode="%" horiz-adv-x="1493" 
d="M1450 348q0 -142 -81 -244q-87 -110 -226 -110t-226 110q-81 101 -81 244q0 155 88.5 254.5t218.5 99.5q138 0 226 -110q81 -102 81 -244zM1149 1450l-672 -1487h-131l672 1487h131zM651 1067q0 -143 -81 -244q-87 -110 -226 -110t-226 110q-81 101 -81 244t81 244
q87 110 226 110t226 -110q81 -101 81 -244zM1282 348q0 65 -36 115q-40 55 -103 55t-103 -55q-36 -50 -36 -115t36 -115q40 -55 103 -55q62 0 103 55q36 51 36 115zM483 1067q0 65 -36 115q-40 55 -103 55t-103 -55q-36 -50 -36 -115t36 -115q40 -55 103 -55t103 55
q36 50 36 115z" />
    <glyph glyph-name="ampersand" unicode="&#x26;" horiz-adv-x="1212" 
d="M1165 0h-270l-84 125q-88 -90 -144 -122q-77 -44 -186 -44q-153 0 -263 103q-126 118 -126 325q0 164 64 258q46 67 198 178q-64 89 -85 128q-50 93 -50 184q0 144 87 248q92 110 233 110q139 0 221 -95q76 -89 76 -231q0 -125 -66 -224q-40 -60 -131 -138l190 -291
q25 27 41 100q15 63 15 111q0 25 -6 43h196v-8q0 -253 -125 -430zM639 1153q0 131 -90 131q-109 0 -109 -115q0 -63 39 -120l56 -82q56 44 76 75q28 44 28 111zM688 311l-227 340q-96 -75 -109 -89q-45 -51 -45 -130q0 -128 76 -209q48 -51 104 -51q64 0 128 62q1 1 73 77z
" />
    <glyph glyph-name="quotesingle" unicode="'" horiz-adv-x="399" 
d="M315 1227l-69 -266h-92l-70 266v266h231v-266z" />
    <glyph glyph-name="parenleft" unicode="(" horiz-adv-x="559" 
d="M508 -414h-168q-144 296 -190 436q-82 250 -82 519v28q0 273 93 535q49 138 179 389h168q-229 -491 -229 -883q0 -251 74 -576q62 -270 155 -448z" />
    <glyph glyph-name="parenright" unicode=")" horiz-adv-x="559" 
d="M479 571v-30q0 -266 -84 -519q-46 -140 -190 -436h-168q192 366 227 955q2 34 2 69q0 392 -229 883h168q131 -252 180 -387q94 -262 94 -535z" />
    <glyph glyph-name="asterisk" unicode="*" horiz-adv-x="653" 
d="M598 1176l-182 -78l131 -199l-109 -111l-125 197l-112 -197l-109 111l129 199l-182 78l43 145l172 -78v252h131v-252l170 78z" />
    <glyph glyph-name="plus" unicode="+" horiz-adv-x="981" 
d="M897 393h-305v-332h-203v332h-305v205h305v332h203v-332h305v-205z" />
    <glyph glyph-name="comma" unicode="," horiz-adv-x="467" 
d="M358 8q0 -221 -100 -295q-52 -49 -152 -69v114q82 6 125 117q21 54 21 88q0 19 -6 37h-140v299h252v-291z" />
    <glyph glyph-name="hyphen" unicode="-" horiz-adv-x="559" 
d="M500 487h-457v218h457v-218z" />
    <glyph glyph-name="hyphen" unicode="&#x2010;" horiz-adv-x="559" 
d="M500 487h-457v218h457v-218z" />
    <glyph glyph-name="period" unicode="." horiz-adv-x="467" 
d="M358 0h-252v299h252v-299z" />
    <glyph glyph-name="slash" unicode="/" horiz-adv-x="467" 
d="M481 1464l-352 -1493h-145l352 1493h145z" />
    <glyph glyph-name="zero" unicode="0" 
d="M868 719q0 -445 -120 -625q-94 -141 -289 -141q-194 0 -289 141q-121 179 -121 625q0 445 121 624q96 142 289 142q194 0 289 -142q120 -180 120 -624zM633 719q0 318 -33 428q-29 96 -141 96t-142 -96q-32 -102 -32 -428t32 -428q30 -96 142 -96t141 96q33 110 33 428z
" />
    <glyph glyph-name="one" unicode="1" 
d="M635 0h-236v1024h-284v170q138 0 236 60q114 69 128 198h156v-1452z" />
    <glyph glyph-name="two" unicode="2" 
d="M866 1018q0 -154 -85 -285q-64 -99 -206 -219q-191 -161 -227 -276h510v-238h-807q11 159 38 251q43 147 144 236q223 196 308 314q67 93 67 213q0 254 -151 254q-90 0 -132 -100q-32 -74 -32 -177q0 -7 1 -20.5t1 -20.5h-225v51q0 205 83 334q99 152 293 152
q209 0 318 -133q102 -123 102 -336z" />
    <glyph glyph-name="three" unicode="3" 
d="M868 422q0 -169 -73 -291q-107 -178 -346 -178q-200 0 -305 141q-95 126 -95 332h225q0 -100 45 -176q54 -90 148 -90q141 0 141 264q0 233 -188 233q-26 0 -53 -6v185q217 0 217 241q0 199 -140 199q-102 0 -138 -104q-19 -55 -21 -177h-217q-5 41 -5 62q0 168 92 289
q108 141 298 141q192 0 293 -123q85 -103 85 -260q0 -128 -38 -207q-29 -60 -97 -119q172 -90 172 -356z" />
    <glyph glyph-name="four" unicode="4" 
d="M877 340h-125v-340h-234v340h-477v223l438 889h273v-897h125v-215zM518 555v604l-309 -604h309z" />
    <glyph glyph-name="five" unicode="5" 
d="M868 481q0 -232 -105 -373q-118 -157 -343 -157q-179 0 -290 152q-89 122 -89 243q0 14 4 31h231q11 -203 150 -203q184 0 184 299q0 297 -164 297q-105 0 -153 -127h-213l108 809h635v-238h-485l-45 -319q102 84 207 84q172 0 275 -154q93 -139 93 -344z" />
    <glyph glyph-name="six" unicode="6" 
d="M872 496q0 -224 -96 -371q-113 -172 -327 -172q-396 0 -396 764q0 296 75 491q108 281 355 281q331 0 369 -361h-219q-47 154 -152 154q-110 0 -161 -126q-37 -92 -37 -222q0 -51 8 -84q97 112 213 111q185 -1 283 -146q85 -126 85 -319zM629 479q0 279 -150 279
q-178 0 -178 -295q0 -293 162 -293q166 0 166 309z" />
    <glyph glyph-name="seven" unicode="7" 
d="M887 1229q-197 -291 -297 -563q-115 -312 -131 -666h-240q47 410 145 680q82 227 275 534h-590v238h838v-223z" />
    <glyph glyph-name="eight" unicode="8" 
d="M883 440q0 -194 -117 -336q-125 -151 -315 -151q-195 0 -309 139q-105 130 -105 330q0 249 184 371q-143 138 -143 297q0 171 109 284t280 113q170 0 276 -117q103 -113 103 -285q0 -92 -39 -171q-44 -90 -121 -121q99 -37 151 -144q46 -93 46 -209zM623 1092
q0 194 -168 194q-69 0 -112 -67q-38 -59 -38 -132q0 -90 33 -150q42 -75 125 -75q81 0 125 78q35 64 35 152zM606 446q0 88 -29 153q-38 87 -114 87q-164 0 -164 -244q0 -95 27 -169q39 -103 118 -103q162 0 162 276z" />
    <glyph glyph-name="nine" unicode="9" 
d="M866 774q0 -821 -446 -821q-176 0 -270 108q-89 101 -89 279h232v-14q0 -56 36 -108q43 -62 107 -62q180 0 180 370q0 38 -10 72q-81 -127 -192 -127q-186 0 -285 165q-82 136 -82 335q0 201 91 347q108 173 300 173q247 0 353 -253q75 -179 75 -464zM610 971
q0 299 -153 299q-178 0 -178 -287q0 -289 165 -289h2q89 0 132 97q32 73 32 180z" />
    <glyph glyph-name="colon" unicode=":" horiz-adv-x="559" 
d="M408 0h-252v299h252v-299zM408 768h-252v299h252v-299z" />
    <glyph glyph-name="semicolon" unicode=";" horiz-adv-x="559" 
d="M408 768h-252v299h252v-299zM408 8q0 -221 -101 -295q-50 -48 -151 -69v114q80 6 123 117q22 56 22 88q0 19 -6 37h-139v299h252v-291z" />
    <glyph glyph-name="less" unicode="&#x3c;" horiz-adv-x="981" 
d="M889 -20l-821 372v246l821 373v-266l-529 -230l529 -229v-266z" />
    <glyph glyph-name="equal" unicode="=" horiz-adv-x="981" 
d="M897 147h-813v205h813v-205zM897 639h-813v205h813v-205z" />
    <glyph glyph-name="greater" unicode="&#x3e;" horiz-adv-x="981" 
d="M889 352l-821 -372v266l526 229l-526 230v266l821 -373v-246z" />
    <glyph glyph-name="question" unicode="?" horiz-adv-x="1026" 
d="M934 1065q0 -142 -56 -241q-41 -73 -147 -167q-61 -54 -80 -108q-12 -34 -12 -103v-34h-225q-2 20 -2 57q0 199 196 383q74 70 74 197q0 229 -164 229q-96 0 -144 -92q-38 -72 -38 -178v-21h-225q-5 33 -5 55q0 198 98 332q109 150 300 150q195 0 315 -134
q115 -128 115 -325zM653 0h-252v299h252v-299z" />
    <glyph glyph-name="at" unicode="@" horiz-adv-x="1636" 
d="M1589 731q0 -156 -47 -272q-88 -218 -217 -295q-79 -47 -154 -47q-47 0 -100 18q-63 21 -115 121q-145 -145 -249 -145q-45 0 -107 33q-79 43 -117 114q-53 101 -53 211q0 32 6 70q29 184 133 337q127 187 293 187q31 0 60 -10q104 -36 133 -131l24 120h152l-141 -618
q0 -6 -1.5 -16.5t-1.5 -16.5q0 -112 78 -112q38 0 76 26q44 23 93 93q43 62 57 108q47 112 47 256q0 174 -98 322q-66 98 -142 159q-140 113 -354 113q-77 0 -144 -17q-187 -48 -358 -325q-133 -215 -133 -490q0 -112 42 -230q36 -101 85 -163q124 -157 319 -213
q77 -22 160 -22q164 0 344 79l49 -161q-147 -95 -401 -95q-393 0 -617 322q-64 92 -104.5 217.5t-40.5 235.5v8q0 322 156 585q188 317 446 404q110 37 219 37q210 0 377 -119q280 -199 332 -502q14 -82 14 -176zM997 717v12q0 134 -112 180q-14 6 -31 6q-82 0 -162 -104
q-100 -129 -100 -291v-22q0 -72 28 -132q35 -71 97 -87q7 -3 20 -3q144 0 223 235q37 110 37 206z" />
    <glyph glyph-name="A" unicode="A" horiz-adv-x="1212" 
d="M1180 0h-256l-93 319h-436l-94 -319h-258l428 1493h289zM778 555l-162 580l-151 -580h313z" />
    <glyph glyph-name="B" unicode="B" horiz-adv-x="1212" 
d="M1122 485q0 -240 -135 -383q-97 -102 -297 -102h-553v1493h547q172 0 286.5 -109.5t114.5 -281.5q0 -191 -116 -307q59 -35 103 -114q50 -91 50 -196zM827 1067q0 190 -155 190h-283v-370h270q168 0 168 180zM858 465q0 186 -182 186h-287v-415h281q188 0 188 229z" />
    <glyph glyph-name="C" unicode="C" horiz-adv-x="1212" 
d="M1151 510q-3 -239 -143 -394q-145 -163 -381 -163q-300 0 -441 254q-112 201 -112 526q0 318 117 525q147 260 444 260q224 0 369 -154q141 -149 147 -377h-240q-10 101 -59 178q-74 117 -215 117q-297 0 -297 -565q0 -194 50 -329q71 -191 224 -191q264 0 293 313h244z
" />
    <glyph glyph-name="D" unicode="D" horiz-adv-x="1212" 
d="M1143 793q0 -275 -94 -497q-125 -296 -367 -296h-553v1493h569q222 0 344 -237q101 -196 101 -463zM881 774q0 191 -51 312q-72 171 -232 171h-217v-1021h192q308 0 308 538z" />
    <glyph glyph-name="E" unicode="E" horiz-adv-x="1120" 
d="M1049 0h-916v1493h887v-236h-635v-360h586v-235h-586v-426h664v-236z" />
    <glyph glyph-name="F" unicode="F" horiz-adv-x="1026" 
d="M985 1257h-608v-360h534v-235h-534v-662h-252v1493h860v-236z" />
    <glyph glyph-name="G" unicode="G" horiz-adv-x="1307" 
d="M1194 0h-152l-30 180q-147 -227 -371 -227q-283 0 -440 263q-131 220 -131 525q0 304 139 523q161 254 444 254q266 0 402 -164q87 -105 120 -219q8 -29 19 -117h-229q-30 116 -104 187q-81 79 -195 79q-187 0 -273 -190q-63 -140 -63 -361q0 -199 71 -354
q91 -199 263 -199q142 0 249 160q64 95 70 207h-278v233h489v-780z" />
    <glyph glyph-name="H" unicode="H" horiz-adv-x="1212" 
d="M1104 0h-252v661h-485v-661h-252v1493h252v-596h485v596h252v-1493z" />
    <glyph glyph-name="I" unicode="I" horiz-adv-x="467" 
d="M358 0h-252v1493h252v-1493z" />
    <glyph glyph-name="J" unicode="J" 
d="M817 356q0 -175 -109 -290t-284 -115q-190 0 -290 123q-93 113 -93 307v170h252v-189q0 -172 125 -172q147 0 147 168v1135h252v-1137z" />
    <glyph glyph-name="K" unicode="K" horiz-adv-x="1212" 
d="M377 0h-252v1493h252v-596h72l415 596h291l-485 -682l534 -811h-303l-424 661h-100v-661z" />
    <glyph glyph-name="L" unicode="L" horiz-adv-x="1026" 
d="M973 0h-838v1493h252v-1257h586v-236z" />
    <glyph glyph-name="M" unicode="M" horiz-adv-x="1399" 
d="M1303 0h-252v1208l-217 -1208h-252l-220 1208v-1208h-251v1493h368l228 -1147l229 1147h367v-1493z" />
    <glyph glyph-name="N" unicode="N" horiz-adv-x="1212" 
d="M1110 0h-248l-495 1040v-1040h-252v1493h247l496 -1026v1026h252v-1493z" />
    <glyph glyph-name="O" unicode="O" horiz-adv-x="1307" 
d="M1245 735q0 -316 -133 -529q-158 -253 -455 -253t-455 252q-134 213 -134 530t134 530q159 253 455 253q297 0 455 -253q133 -213 133 -530zM983 735q0 211 -62 349q-84 186 -264 186q-181 0 -265 -185q-62 -137 -62 -350t62 -350q83 -184 265 -184q180 0 264 186
q62 138 62 348z" />
    <glyph glyph-name="P" unicode="P" horiz-adv-x="1120" 
d="M1063 1026q0 -143 -33 -227q-105 -267 -336 -267h-315v-532h-252v1493h545q277 0 360 -242q31 -90 31 -225zM803 1040q0 91 -39 149q-45 68 -131 68h-254v-489h266q80 0 124 102q34 78 34 170z" />
    <glyph glyph-name="Q" unicode="Q" horiz-adv-x="1307" 
d="M1251 55l-131 -153l-139 151q-136 -100 -319 -100q-296 0 -455 253q-135 214 -135 529t135 530q159 253 455 253q294 0 451 -253q132 -213 132 -530q0 -312 -127 -526zM983 735q0 214 -60 350q-82 185 -261 185q-181 0 -267 -185q-65 -140 -65 -350q0 -209 65 -349
q86 -185 267 -185q81 0 141 37l-127 145l139 147l119 -114q49 144 49 319z" />
    <glyph glyph-name="R" unicode="R" horiz-adv-x="1212" 
d="M1194 0h-295l-270 590h-240v-590h-252v1493h619q176 0 278 -130q94 -119 94 -300q0 -306 -260 -424zM868 1026q0 231 -153 231h-326v-432h330q63 0 108 71q41 64 41 130z" />
    <glyph glyph-name="S" unicode="S" horiz-adv-x="1120" 
d="M1063 446q0 -493 -537 -493q-209 0 -338 142q-122 134 -135 347h246q0 -114 74 -188t188 -74q108 0 180 53q80 60 80 164q0 109 -73 164q-52 40 -178 69q-229 54 -269 70q-225 94 -225 369q0 216 124 333q121 116 339 116q290 0 413 -191q72 -112 72 -254q0 -26 -2 -35
h-236v4q0 110 -70.5 181t-180.5 71q-224 0 -224 -200q0 -142 146 -191q48 -16 239 -59q180 -41 267 -125q100 -98 100 -273z" />
    <glyph glyph-name="T" unicode="T" horiz-adv-x="1026" 
d="M1004 1257h-357v-1257h-252v1257h-370v236h979v-236z" />
    <glyph glyph-name="U" unicode="U" horiz-adv-x="1212" 
d="M1098 463q0 -229 -124 -367q-129 -143 -356 -143q-220 0 -357 146q-134 143 -134 364v1030h252v-1055q0 -239 231 -239q236 0 236 239v1055h252v-1030z" />
    <glyph glyph-name="V" unicode="V" horiz-adv-x="1120" 
d="M1085 1493l-413 -1493h-217l-414 1493h252l270 -1065l271 1065h251z" />
    <glyph glyph-name="W" unicode="W" horiz-adv-x="1585" 
d="M1565 1493l-342 -1493h-228l-202 1057l-201 -1057h-227l-342 1493h266l188 -997l182 997h269l182 -1010l188 1010h267z" />
    <glyph glyph-name="X" unicode="X" horiz-adv-x="1120" 
d="M1096 0h-297l-234 506l-233 -506h-295l387 752l-369 741h297l213 -481l226 481h296l-378 -731z" />
    <glyph glyph-name="Y" unicode="Y" horiz-adv-x="1120" 
d="M1092 1493l-392 -940v-553h-251v553l-404 940h281l247 -643l236 643h283z" />
    <glyph glyph-name="Z" unicode="Z" horiz-adv-x="1026" 
d="M971 0h-920v256l637 1001h-637v236h920v-256l-637 -1001h637v-236z" />
    <glyph glyph-name="bracketleft" unicode="[" horiz-adv-x="559" 
d="M516 -414h-405v1907h405v-205h-186v-1489h186v-213z" />
    <glyph glyph-name="backslash" unicode="\" horiz-adv-x="467" 
d="M506 -43h-166l-381 1493h168z" />
    <glyph glyph-name="bracketright" unicode="]" horiz-adv-x="559" 
d="M436 -414h-405v213h186v1489h-186v205h405v-1907z" />
    <glyph glyph-name="asciicircum" unicode="^" horiz-adv-x="981" 
d="M877 555h-191l-197 612l-196 -612h-191l281 870h209z" />
    <glyph glyph-name="underscore" unicode="_" 
d="M971 -410h-1008v144h1008v-144z" />
    <glyph glyph-name="grave" unicode="`" horiz-adv-x="559" 
d="M358 1219h-116l-213 307h211z" />
    <glyph glyph-name="a" unicode="a" 
d="M881 0h-250q-25 42 -25 100v11q-131 -158 -289 -158q-137 0 -208 95q-64 84 -64 226q0 158 72 239q54 61 183 103l245 80q59 25 59 111q0 135 -143 135q-156 0 -166 -201h-221q0 387 377 387q376 0 376 -352v-606q0 -74 54 -131v-39zM604 438v105q-65 -38 -217 -80
q-43 -12 -74.5 -54t-31.5 -87q0 -156 116 -156q207 0 207 272z" />
    <glyph glyph-name="b" unicode="b" horiz-adv-x="1024" 
d="M967 561q0 -218 -78 -388q-101 -220 -295 -220q-167 0 -260 158v-111h-236v1493h236v-535q30 78 101.5 124t156.5 46q191 0 294 -198q81 -159 81 -369zM729 537q0 133 -35 227q-51 135 -162 135q-113 0 -163 -134q-35 -93 -35 -228q0 -130 37 -227q52 -136 161 -136
q197 0 197 363z" />
    <glyph glyph-name="c" unicode="c" 
d="M877 387q-61 -434 -420 -434q-214 0 -319 192q-83 152 -83 385q0 255 94 410q115 188 353 188q193 0 296 -158q79 -122 79 -274h-226q-40 203 -176 203q-104 0 -149 -140q-29 -91 -29 -222q0 -367 184 -367q128 0 170 217h226z" />
    <glyph glyph-name="d" unicode="d" horiz-adv-x="1024" 
d="M915 0h-235v111q-93 -158 -262 -158q-168 0 -273 187q-98 174 -98 421q0 209 84 369q104 198 295 198q187 0 254 -170v535h235v-1493zM680 539q0 362 -197 362q-198 0 -198 -362q0 -136 35 -228q50 -135 163 -135t163 135q34 92 34 228z" />
    <glyph glyph-name="e" unicode="e" horiz-adv-x="971" 
d="M903 541q0 -9 -1 -28t-1 -28h-606v-69q0 -94 49 -168q56 -84 143 -84q57 0 108.5 46t63.5 103h232q-31 -164 -140 -260q-112 -100 -276 -100q-211 0 -323 179q-95 152 -95 376q0 256 82 414q107 206 338 206q233 0 346 -219q80 -155 80 -368zM657 657q0 92 -32 158
q-46 94 -142 94t-147 -86q-41 -70 -41 -166h362z" />
    <glyph glyph-name="f" unicode="f" horiz-adv-x="559" 
d="M526 889h-139v-889h-235v889h-127v221h127v107q0 276 221 276h145v-193h-82q-49 0 -49 -75v-115h139v-221z" />
    <glyph glyph-name="g" unicode="g" horiz-adv-x="1024" 
d="M909 -29q0 -210 -126 -319q-118 -103 -330 -103q-150 0 -259 77q-122 87 -122 231v14h247v-2q0 -56 58 -92q50 -31 110 -31q82 0 141.5 65.5t59.5 147.5v156q-95 -162 -244 -162q-206 0 -307 186q-80 148 -80 373q0 250 71 405q97 211 318 211q162 0 242 -186v168h221
v-1139zM692 526q0 143 -37 241q-54 142 -174 142q-192 0 -192 -383q0 -362 192 -362q211 0 211 362z" />
    <glyph glyph-name="h" unicode="h" horiz-adv-x="1024" 
d="M909 0h-235v735q0 168 -148 168q-86 0 -135 -75q-43 -65 -43 -156v-672h-235v1493h219v-526q88 161 278 161q140 0 221 -89q78 -86 78 -228v-811z" />
    <glyph glyph-name="i" unicode="i" horiz-adv-x="467" 
d="M348 1237h-235v256h235v-256zM348 0h-235v1110h235v-1110z" />
    <glyph glyph-name="j" unicode="j" horiz-adv-x="467" 
d="M352 1237h-235v256h235v-256zM352 -207q0 -74 -33 -137q-39 -73 -104 -88q-76 -17 -209 -17v216q6 0 18.5 -1.5t18.5 -1.5q74 0 74 80v1266h235v-1317z" />
    <glyph glyph-name="k" unicode="k" 
d="M334 0h-236v1493h236v-807h67l248 424h260l-291 -479l310 -631h-269l-233 496h-92v-496z" />
    <glyph glyph-name="l" unicode="l" horiz-adv-x="467" 
d="M348 0h-235v1493h235v-1493z" />
    <glyph glyph-name="m" unicode="m" horiz-adv-x="1493" 
d="M1384 0h-235v786q0 54 -35.5 85.5t-89.5 31.5q-84 0 -129 -72q-35 -56 -35 -129v-702h-235v786q0 117 -129 117q-79 0 -122 -63q-38 -55 -38 -138v-702h-236v1110h236v-166q106 184 244 184q158 0 254 -165q47 80 92 115q64 50 159 50q299 0 299 -358v-770z" />
    <glyph glyph-name="n" unicode="n" horiz-adv-x="1024" 
d="M918 0h-236v688q0 105 -20 148q-31 67 -125 67q-88 0 -141 -49q-56 -51 -56 -137v-717h-234v1110h234v-168q78 186 227 186q351 0 351 -385v-743z" />
    <glyph glyph-name="o" unicode="o" horiz-adv-x="1024" 
d="M956 541q0 -248 -98 -403q-117 -185 -350 -185q-235 0 -352 184q-97 154 -97 404q0 248 98 403q117 184 351 184q233 0 350 -185q98 -155 98 -402zM719 541q0 136 -39 231q-55 131 -172 131q-120 0 -174 -130q-39 -93 -39 -232q0 -363 213 -363q211 0 211 363z" />
    <glyph glyph-name="p" unicode="p" horiz-adv-x="1024" 
d="M965 524q0 -232 -77 -380q-99 -191 -310 -191q-149 0 -246 162v-564h-236v1559h236v-168q80 186 260 186q203 0 300 -214q73 -160 73 -390zM727 532q0 371 -197 371q-111 0 -163 -140q-35 -97 -35 -231q0 -135 35 -228q50 -134 163 -134q110 0 161 136q36 95 36 226z" />
    <glyph glyph-name="q" unicode="q" horiz-adv-x="1024" 
d="M913 -449h-235v564q-101 -162 -244 -162q-210 0 -309 192q-78 149 -78 379q0 251 92 418q103 186 285 186q178 0 254 -186v166h235v-1557zM678 520q0 383 -197 383q-196 0 -196 -383q0 -174 67 -270q55 -78 129 -78q108 0 159 129q38 94 38 219z" />
    <glyph glyph-name="r" unicode="r" horiz-adv-x="653" 
d="M621 850q-37 6 -80 6q-201 0 -201 -217v-639h-234v1110h234v-215q27 96 113 170q73 63 137 63q10 0 31 -4v-274z" />
    <glyph glyph-name="s" unicode="s" 
d="M872 346q0 -393 -417 -393q-177 0 -287 97q-114 101 -119 276h232q46 -181 204 -181q60 0 104 49q40 44 40 91q0 94 -97 127l-237 80q-213 72 -213 280q0 356 379 356q173 0 281 -102t108 -274h-227q-7 180 -177 180q-52 0 -93 -36q-44 -38 -44 -89q0 -81 56 -100
l294 -99q78 -26 138 -89q75 -78 75 -173z" />
    <glyph glyph-name="t" unicode="t" horiz-adv-x="559" 
d="M506 889h-131v-639q0 -96 39 -96h88v-174q-65 -27 -133 -27q-96 0 -163 63t-67 158v715h-114v221h114v279h236v-279h131v-221z" />
    <glyph glyph-name="u" unicode="u" horiz-adv-x="1024" 
d="M909 0h-235v137q-94 -184 -246 -184q-332 0 -332 385v772h236v-717q0 -107 21 -150q32 -65 130 -65q100 0 151 66q40 51 40 121v745h235v-1110z" />
    <glyph glyph-name="v" unicode="v" 
d="M899 1110l-315 -1110h-246l-315 1110h249l189 -752l190 752h248z" />
    <glyph glyph-name="w" unicode="w" horiz-adv-x="1307" 
d="M1286 1110l-254 -1110h-241l-142 780l-145 -780h-242l-254 1110h244l141 -696l133 696h244l131 -696l141 696h244z" />
    <glyph glyph-name="x" unicode="x" 
d="M899 0h-281l-153 328l-158 -328h-280l297 553l-289 557h282l148 -338l151 338h279l-297 -557z" />
    <glyph glyph-name="y" unicode="y" 
d="M903 1110l-385 -1339q-40 -141 -142 -187q-72 -33 -235 -33v209q13 -2 39 -2q74 0 119 55q43 51 43 126q0 33 -8 61l-320 1110h260l197 -807l191 807h241z" />
    <glyph glyph-name="z" unicode="z" horiz-adv-x="840" 
d="M786 0h-751v236l461 655h-428v219h704v-236l-457 -659h471v-215z" />
    <glyph glyph-name="braceleft" unicode="{" horiz-adv-x="653" 
d="M573 -414h-184q-57 0 -116 68q-72 84 -72 213v469q0 119 -119 119h-21v190h23q117 0 117 98v469q0 131 72 214q58 67 116 67h184v-201h-61q-52 0 -68 -34q-10 -21 -10 -74v-436q0 -174 -162 -199q68 -11 101 -39q61 -52 61 -178v-436q0 -54 10 -75q16 -34 68 -34h61v-201
z" />
    <glyph glyph-name="bar" unicode="|" horiz-adv-x="471" 
d="M344 -414h-217v1907h217v-1907z" />
    <glyph glyph-name="braceright" unicode="}" horiz-adv-x="653" 
d="M592 455h-21q-116 0 -116 -119v-469q0 -129 -73 -213q-59 -68 -118 -68h-184v201h61q52 0 68 34q10 21 10 75v436q0 193 162 219q-162 19 -162 197v438q0 53 -10 74q-16 34 -68 34h-61v199h184q59 0 118 -67q73 -82 73 -214v-469q0 -98 114 -98h23v-190z" />
    <glyph glyph-name="asciitilde" unicode="~" horiz-adv-x="981" 
d="M870 571q0 -114 -77 -211q-52 -65 -115 -65q-53 0 -119 43l-188 123q-43 28 -74 28q-66 0 -78 -133h-119q15 157 90 238q60 65 123 65q47 0 95 -34l170 -121q52 -37 90 -37q73 0 73 115v12h129v-23z" />
    <glyph glyph-name="nonbreakingspace" unicode="&#xa0;" horiz-adv-x="467" 
 />
    <glyph glyph-name="sterling" unicode="&#xa3;" 
d="M901 51q-31 -19 -95 -55q-71 -37 -153 -37q-55 0 -110 18q-148 48 -213 48q-86 0 -187 -64l-90 205l62 54q38 34 71 87q50 81 50 170q0 62 -35 172h-148v117h103q-25 52 -51 104q-37 95 -37 189q0 31 2 45v12q0 67 48 152q45 79 101 125q91 75 246 75q186 0 287 -104
q65 -66 94 -171q17 -60 33 -196h-224q-25 244 -178 244h-16q-73 -4 -117.5 -57t-44.5 -127q0 -49 36 -146q28 -73 56 -145h240v-117h-203q14 -66 14 -119q0 -133 -94 -248l-90 -102q2 1 57 29q80 41 142 41q34 0 63 -8q98 -27 129 -27q82 0 185 59z" />
    <glyph glyph-name="currency" unicode="&#xa4;" horiz-adv-x="1317" 
d="M1141 1196l-127 -145q65 -114 65 -258q0 -106 -73 -250l124 -154l-126 -145l-115 145q-119 -88 -215 -88q-84 0 -207 68l-119 -136l-121 156l111 137q-72 109 -72 275q0 178 82 260l-129 160l119 151l127 -158q124 74 215 74t211 -74l123 146zM891 803q0 109 -59 183
q-64 81 -170 81t-166 -86q-52 -75 -52 -186t52 -186q60 -87 166 -87q111 0 173 88q56 78 56 193z" />
    <glyph glyph-name="section" unicode="&#xa7;" 
d="M870 541q0 -94 -37 -170q-44 -91 -126 -109q39 -30 72 -85q50 -82 50 -171q0 -24 -6 -57q-21 -112 -24 -123q-28 -91 -90 -148q-96 -88 -244 -88q-110 0 -180 41q-179 105 -179 334q0 25 3 35h221v-18q0 -135 96 -156q18 -4 37 -4q90 0 121 78q8 20 8 47q0 92 -72 133
q-50 15 -147 82q-57 41 -172 121q-146 99 -146 274v29q0 104 52 181q19 28 104 116q-102 141 -102 245q0 63 22 127q81 236 324 236h28q199 -12 270 -151q31 -61 46 -220h-215q-13 66 -15 74q-7 26 -28 47q-37 37 -86 37q-21 0 -49 -10q-58 -21 -58 -94q0 -68 53 -105
q88 -59 308 -211q161 -113 161 -293v-24zM668 485q0 74 -76 131q-125 74 -260 172q-68 -37 -76 -126v-15q0 -70 59 -117q130 -82 252 -190q52 32 70 52q31 35 31 91v2z" />
    <glyph glyph-name="copyright" unicode="&#xa9;" horiz-adv-x="1638" 
d="M1571 745q0 -336 -208 -556q-212 -224 -546 -224q-328 0 -540 220q-209 217 -209 546q0 327 213.5 546.5t539.5 219.5q317 0 533.5 -217t216.5 -535zM1407 719q0 273 -155 454q-163 191 -431 191q-264 0 -430 -186q-160 -180 -160 -447q0 -268 157 -447
q164 -186 429 -186q259 0 427 183q163 177 163 438zM1067 584h141q-21 -92 -49 -140q-103 -176 -317 -176q-194 0 -314 135q-116 130 -116 326q0 193 118 317.5t310 124.5q230 0 325 -178q26 -49 41 -131h-139q-44 176 -227 176q-127 0 -199 -92q-66 -85 -66 -215
q0 -133 68 -226q76 -104 205 -104q184 0 219 183z" />
    <glyph glyph-name="guillemotleft" unicode="&#xab;" 
d="M786 150l-278 305v235l278 301v-235l-168 -185l168 -180v-241zM426 145l-279 306v235l279 301v-235l-168 -185l168 -180v-242z" />
    <glyph glyph-name="logicalnot" unicode="&#xac;" horiz-adv-x="981" 
d="M913 125h-192v360h-653v215h845v-575z" />
    <glyph glyph-name="registered" unicode="&#xae;" horiz-adv-x="1638" 
d="M1571 745q0 -336 -208 -556q-212 -224 -546 -224q-328 0 -540 220q-209 217 -209 546q0 327 213.5 546.5t539.5 219.5q317 0 533.5 -217t216.5 -535zM1407 719q0 273 -155 454q-163 191 -431 191q-264 0 -430 -186q-160 -180 -160 -447q0 -268 157 -447
q164 -186 429 -186q259 0 427 183q163 177 163 438zM670 655v-362h-140v848h322q309 0 309 -242q0 -201 -221 -233l238 -373h-158l-219 362h-131zM670 774h155q92 0 135 20q62 29 62 109q0 119 -184 119h-168v-248z" />
    <glyph glyph-name="degree" unicode="&#xb0;" horiz-adv-x="672" 
d="M588 1178q0 -117 -66 -199q-72 -88 -186 -88t-185 88q-66 82 -67 199q-1 116 66 198q72 88 186 88q113 0 185 -88q67 -82 67 -198zM487 1178q0 70 -42 116.5t-111 46.5q-68 0 -109 -46t-41 -115v-2q0 -71 40 -116q42 -48 112 -48q69 0 110 47t41 117z" />
    <glyph glyph-name="plusminus" unicode="&#xb1;" horiz-adv-x="981" 
d="M897 762h-305v-373h-203v373h-305v246h305v372h203v-372h305v-246zM913 0h-845v238h845v-238z" />
    <glyph glyph-name="mu" unicode="&#xb5;" horiz-adv-x="1024" 
d="M909 0h-235v137q-81 -159 -225 -184q-66 0 -117 12v-414h-236v1559h236v-694q0 -97 19 -140q35 -78 126 -71q4 0 25 2q156 13 172 186v717h235v-1110z" />
    <glyph glyph-name="mu" unicode="&#x3bc;" horiz-adv-x="1024" 
d="M909 0h-235v137q-81 -159 -225 -184q-66 0 -117 12v-414h-236v1559h236v-694q0 -97 19 -140q35 -78 126 -71q4 0 25 2q156 13 172 186v717h235v-1110z" />
    <glyph glyph-name="paragraph" unicode="&#xb6;" 
d="M889 1348v145h-533q-142 0 -239 -170q-84 -146 -84 -299q0 -16 2 -41q32 -399 344 -440v-942h121v1745h139v-1745h123v1747h127zM379 -399z" />
    <glyph glyph-name="guillemotright" unicode="&#xbb;" 
d="M776 451l-278 -306v242l168 180l-168 185v235l278 -301v-235zM426 451l-279 -306v242l168 180l-168 185v235l279 -301v-235z" />
    <glyph glyph-name="divide" unicode="&#xf7;" horiz-adv-x="981" 
d="M592 725h-203v246h203v-246zM897 352h-813v246h813v-246zM592 -20h-203v245h203v-245z" />
    <glyph glyph-name="florin" unicode="&#x192;" 
d="M899 1491l-35 -236q-57 31 -92 31q-14 0 -20 -2q-88 -17 -117 -299h205v-201h-230l-104 -813q-41 -322 -191 -391q-71 -33 -135 -33q-44 0 -145 47l41 238q69 -35 100 -35h4q63 6 96 262l93 727l-193 -2v201h232q35 236 61 312q66 194 203 223q38 8 69 8q59 0 158 -37z
" />
    <glyph glyph-name="Delta" unicode="&#x394;" horiz-adv-x="1253" 
d="M1245 0h-1233l656 1409zM991 100l-397 959l-447 -959h844z" />
    <glyph glyph-name="Delta" unicode="&#x2206;" horiz-adv-x="1253" 
d="M1245 0h-1233l656 1409zM991 100l-397 959l-447 -959h844z" />
    <glyph glyph-name="endash" unicode="&#x2013;" 
d="M936 487h-950v215h950v-215z" />
    <glyph glyph-name="emdash" unicode="&#x2014;" horiz-adv-x="1679" 
d="M1683 487h-1695v215h1695v-215z" />
    <glyph glyph-name="quoteleft" unicode="&#x2018;" horiz-adv-x="467" 
d="M340 961h-227v239q0 176 118 258q30 21 109 35v-94q-72 -14 -107 -74q-28 -38 -28 -84q0 -12 4 -24h131v-256z" />
    <glyph glyph-name="quoteright" unicode="&#x2019;" horiz-adv-x="467" 
d="M354 1253q0 -176 -118 -258q-30 -21 -109 -34v94q65 12 106 73q27 40 27 80q0 21 -4 29h-129v256h227v-240z" />
    <glyph glyph-name="quotedblleft" unicode="&#x201c;" horiz-adv-x="840" 
d="M727 961h-227v239q0 173 121 258q30 21 106 35v-94q-64 -12 -106 -74q-27 -40 -27 -80q0 -20 4 -28h129v-256zM346 961h-227v239q0 175 119 258q29 20 108 35v-94q-64 -12 -106 -74q-27 -40 -27 -80q0 -20 4 -28h129v-256z" />
    <glyph glyph-name="quotedblright" unicode="&#x201d;" horiz-adv-x="840" 
d="M727 1253q0 -175 -119 -258q-27 -19 -108 -34v94q64 12 106 73q27 40 27 80q0 21 -4 29h-129v256h227v-240zM338 1253q0 -174 -121 -258q-29 -20 -106 -34v94q64 12 106 73q27 40 27 80q0 21 -4 29h-129v256h227v-240z" />
    <glyph glyph-name="quotedblbase" unicode="&#x201e;" horiz-adv-x="840" 
d="M731 12q0 -175 -119 -258q-29 -20 -108 -35v95q65 12 106 73q27 40 27 80q0 21 -4 29h-129v256h227v-240zM342 12q0 -174 -121 -258q-29 -20 -106 -35v95q64 12 106 73q27 40 27 80q0 21 -4 29h-129v256h227v-240z" />
    <glyph glyph-name="dagger" unicode="&#x2020;" 
d="M879 795h-306v-1194h-217v1194h-305v196h305v459h228v-459h295v-196z" />
    <glyph glyph-name="bullet" unicode="&#x2022;" horiz-adv-x="588" 
d="M504 614q0 -97 -56 -164q-59 -71 -155 -71q-95 0 -154 71q-54 66 -55 164t54 165q59 71 155 71t155 -71q56 -67 56 -165z" />
    <glyph glyph-name="ellipsis" unicode="&#x2026;" horiz-adv-x="1679" 
d="M1526 0h-252v299h252v-299zM967 0h-252v299h252v-299zM406 0h-252v299h252v-299z" />
    <glyph glyph-name="trademark" unicode="&#x2122;" horiz-adv-x="1679" 
d="M1561 698h-148v668l-201 -668h-88l-198 668v-668h-148v828h238l153 -490l152 490h240v-828zM696 1386h-207v-688h-163v688h-207v140h577v-140z" />
    <glyph glyph-name="radical" unicode="&#x221a;" horiz-adv-x="1124" 
d="M1055 1868l-307 -1946l-498 1028l-197 -96l-33 68l379 188l344 -733l240 1501z" />
    <glyph glyph-name="infinity" unicode="&#x221e;" horiz-adv-x="1460" 
d="M1112 254q-115 0 -212 54q-54 30 -169 126q-114 -95 -169 -126q-96 -54 -211 -54q-120 0 -210 85t-90 205q0 121 97 204q93 79 216 79q153 0 367 -179q214 179 367 179q123 0 216 -79q97 -83 97 -204q0 -119 -89.5 -204.5t-209.5 -85.5zM1100 663q-91 0 -248 -124
q142 -127 240 -127q56 0 99.5 34.5t43.5 88.5q0 53 -41 90.5t-94 37.5zM577 564q-131 99 -215 99q-55 0 -95 -38.5t-40 -92.5q0 -53 46 -88q42 -32 97 -32q99 0 240 127q-1 1 -33 25z" />
    <glyph glyph-name="approxequal" unicode="&#x2248;" horiz-adv-x="981" 
d="M874 776q0 -114 -77 -211q-52 -65 -115 -65q-53 0 -119 43l-188 123q-43 28 -74 28q-66 0 -78 -133h-119q15 156 91 238q60 65 122 65q45 0 95 -35l170 -120q52 -37 90 -37q73 0 73 114v13h129v-23zM874 408q0 -114 -77 -211q-53 -66 -115 -66q-53 0 -119 43l-188 123
q-44 29 -74 29q-66 0 -78 -133h-119q15 154 91 237q61 66 122 66q46 0 95 -35l170 -121q52 -37 90 -37q73 0 73 115v12h129v-22z" />
    <glyph glyph-name="approxequal" unicode="&#x22f2;" horiz-adv-x="981" 
d="M874 776q0 -114 -77 -211q-52 -65 -115 -65q-53 0 -119 43l-188 123q-43 28 -74 28q-66 0 -78 -133h-119q15 156 91 238q60 65 122 65q45 0 95 -35l170 -120q52 -37 90 -37q73 0 73 114v13h129v-23zM874 408q0 -114 -77 -211q-53 -66 -115 -66q-53 0 -119 43l-188 123
q-44 29 -74 29q-66 0 -78 -133h-119q15 154 91 237q61 66 122 66q46 0 95 -35l170 -121q52 -37 90 -37q73 0 73 115v12h129v-22z" />
    <glyph glyph-name="notequal" unicode="&#x2260;" horiz-adv-x="981" 
d="M897 147h-506l-110 -198l-101 57l79 141h-175v205h289l160 287h-449v205h563l156 280l100 -57l-124 -223h118v-205h-232l-160 -287h392v-205z" />
    <glyph glyph-name="lessequal" unicode="&#x2264;" horiz-adv-x="981" 
d="M889 -41h-821v215h821v-215zM889 281l-821 372v246l821 373v-266l-529 -230l529 -229v-266z" />
    <glyph glyph-name="greaterequal" unicode="&#x2265;" horiz-adv-x="981" 
d="M889 653l-821 -372v266l528 229l-528 230v266l821 -373v-246zM889 -41h-821v215h821v-215z" />
    <glyph glyph-name="Acyrillic" horiz-adv-x="1212" 
d="M1180 0h-256l-93 319h-436l-94 -319h-258l428 1493h289zM778 555l-162 580l-151 -580h313z" />
    <glyph glyph-name="BEcyrillic" horiz-adv-x="1212" 
d="M1120 483q0 -483 -430 -483h-553v1493h860v-236h-608v-360h348q147 0 259 -107q124 -118 124 -307zM854 465q0 197 -182 197h-283v-426h277q188 0 188 229z" />
    <glyph glyph-name="VEcyrillic" horiz-adv-x="1212" 
d="M1122 485q0 -240 -135 -383q-97 -102 -297 -102h-553v1493h547q172 0 286.5 -109.5t114.5 -281.5q0 -191 -116 -307q59 -35 103 -114q50 -91 50 -196zM827 1067q0 190 -155 190h-283v-370h270q168 0 168 180zM858 465q0 186 -182 186h-287v-415h281q188 0 188 229z" />
    <glyph glyph-name="GEcyrillic" horiz-adv-x="1006" 
d="M965 1257h-588v-1257h-252v1493h840v-236z" />
    <glyph glyph-name="DEcyrillic" horiz-adv-x="1262" 
d="M1239 -346h-252v346l-704 -2v-346h-252v581h106q79 136 139 475q66 372 66 769v0v16h791v-1257h106v-582zM881 236v1021h-297q0 -184 -58 -530q-63 -376 -127 -491h482z" />
    <glyph glyph-name="IEcyrillic" horiz-adv-x="1120" 
d="M1049 0h-916v1493h887v-236h-635v-360h586v-235h-586v-426h664v-236z" />
    <glyph glyph-name="ZHEcyrillic" horiz-adv-x="1898" 
d="M1862 0h-303l-363 661h-121v-661h-252v661h-121l-362 -661h-303l473 811l-424 682h287l358 -596h92v596h252v-596h92l359 596h286l-423 -682z" />
    <glyph glyph-name="ZEcyrillic" horiz-adv-x="1163" 
d="M1081 473q0 -250 -147 -388q-143 -134 -395 -134q-220 0 -354 141q-132 138 -132 359h258q0 -269 252 -269q121 0 188 86q60 78 60 203q0 96 -79 160q-65 53 -130 53h-157v215h141q63 0 122 51q72 62 72 160q0 91 -53.5 147t-144.5 56q-116 0 -176 -72q-48 -57 -48 -137
h-245q1 48 3 97q9 69 44 124q122 191 413 191q206 0 327 -91q136 -102 136 -301q0 -98 -50.5 -180.5t-137.5 -126.5q105 -19 172 -131q61 -99 61 -213z" />
    <glyph glyph-name="IIcyrillic" horiz-adv-x="1212" 
d="M1110 0h-252v1040l-496 -1040h-247v1493h252v-1026l495 1026h248v-1493z" />
    <glyph glyph-name="IIshortcyrillic" horiz-adv-x="1212" 
d="M971 1876q0 -142 -111 -211q-92 -57 -242 -57q-147 0 -240 59q-112 70 -112 209h219q0 -53 41 -83q37 -26 92 -26q134 0 134 109h219zM1110 0h-252v1040l-496 -1040h-247v1493h252v-1026l495 1026h248v-1493z" />
    <glyph glyph-name="KAcyrillic" horiz-adv-x="1212" 
d="M377 0h-252v1493h252v-596h72l415 596h291l-485 -682l534 -811h-303l-424 661h-100v-661z" />
    <glyph glyph-name="ELcyrillic" horiz-adv-x="1241" 
d="M1133 0h-252v1257h-357v-798q0 -206 -85 -331q-99 -144 -296 -144q-65 0 -102 36v218q29 -17 72 -17q159 0 159 359v913h861v-1493z" />
    <glyph glyph-name="EMcyrillic" horiz-adv-x="1399" 
d="M1303 0h-252v1208l-217 -1208h-252l-220 1208v-1208h-251v1493h368l228 -1147l229 1147h367v-1493z" />
    <glyph glyph-name="ENcyrillic" horiz-adv-x="1212" 
d="M1104 0h-252v661h-485v-661h-252v1493h252v-596h485v596h252v-1493z" />
    <glyph glyph-name="Ocyrillic" horiz-adv-x="1307" 
d="M1245 735q0 -316 -133 -529q-158 -253 -455 -253t-455 252q-134 213 -134 530t134 530q159 253 455 253q297 0 455 -253q133 -213 133 -530zM983 735q0 211 -62 349q-84 186 -264 186q-181 0 -265 -185q-62 -137 -62 -350t62 -350q83 -184 265 -184q180 0 264 186
q62 138 62 348z" />
    <glyph glyph-name="PEcyrillic" horiz-adv-x="1212" 
d="M1104 0h-252v1257h-485v-1257h-252v1493h989v-1493z" />
    <glyph glyph-name="ERcyrillic" horiz-adv-x="1120" 
d="M1063 1026q0 -143 -33 -227q-105 -267 -336 -267h-315v-532h-252v1493h545q277 0 360 -242q31 -90 31 -225zM803 1040q0 91 -39 149q-45 68 -131 68h-254v-489h266q80 0 124 102q34 78 34 170z" />
    <glyph glyph-name="EScyrillic" horiz-adv-x="1212" 
d="M1151 510q-3 -239 -143 -394q-145 -163 -381 -163q-300 0 -441 254q-112 201 -112 526q0 318 117 525q147 260 444 260q224 0 369 -154q141 -149 147 -377h-240q-10 101 -59 178q-74 117 -215 117q-297 0 -297 -565q0 -194 50 -329q71 -191 224 -191q264 0 293 313h244z
" />
    <glyph glyph-name="TEcyrillic" horiz-adv-x="1026" 
d="M1004 1257h-357v-1257h-252v1257h-370v236h979v-236z" />
    <glyph glyph-name="Ucyrillic" horiz-adv-x="1120" 
d="M1085 1493l-403 -1171q-115 -334 -356 -334q-67 0 -144 22v238q50 -27 113 -27q85 0 131 81q35 62 35 132q0 37 -12 68l-388 991h283l248 -737l209 737h284z" />
    <glyph glyph-name="EFcyrillic" horiz-adv-x="1573" 
d="M1518 748q0 -264 -165 -440q-169 -181 -431 -181v-127h-252v129q-262 0 -431 179q-165 176 -165 440q0 262 166 437q169 179 430 179v129h252v-127q262 0 431 -179q165 -176 165 -439zM1276 748q0 157 -97 271q-103 120 -257 120v-785q152 0 256 123q98 116 98 271z
M670 356v781q-157 0 -259 -117q-96 -112 -96 -272q0 -152 100 -269q105 -123 255 -123z" />
    <glyph glyph-name="KHAcyrillic" horiz-adv-x="1120" 
d="M1096 0h-297l-234 506l-233 -506h-295l387 752l-369 741h297l213 -481l226 481h296l-378 -731z" />
    <glyph glyph-name="TSEcyrillic" horiz-adv-x="1233" 
d="M1210 -346h-252v346h-843v1493h252v-1257h485v1257h252v-1257h106v-582z" />
    <glyph glyph-name="CHEcyrillic" horiz-adv-x="1171" 
d="M1063 0h-252v559q-105 -27 -223 -27q-473 0 -473 453v508h252v-555q0 -170 217 -170q119 0 227 27v698h252v-1493z" />
    <glyph glyph-name="SHAcyrillic" horiz-adv-x="1819" 
d="M1718 0h-1603v1493h252v-1257h424v1257h251v-1257h424v1257h252v-1493z" />
    <glyph glyph-name="SHCHAcyrillic" horiz-adv-x="1819" 
d="M1804 -346h-252v346h-1437v1493h252v-1257h413v1257h252v-1257h414v1257h252v-1257h106v-582z" />
    <glyph glyph-name="Hardsigncyrillic" horiz-adv-x="1438" 
d="M1348 483q0 -220 -104 -347q-113 -136 -329 -136h-532v1257h-342v236h594v-596h276q190 0 311 -111q126 -115 126 -303zM1085 465q0 82 -51 139.5t-131 57.5h-268v-426h262q188 0 188 229z" />
    <glyph glyph-name="YERIcyrillic" horiz-adv-x="1653" 
d="M1544 0h-252v1493h252v-1493zM1102 483q0 -220 -104 -346q-113 -137 -328 -137h-533v1493h252v-596h277q189 0 311 -112q125 -115 125 -302zM840 465q0 82 -50 138q-53 59 -133 59h-268v-426h262q189 0 189 229z" />
    <glyph glyph-name="Softsigncyrillic" horiz-adv-x="1192" 
d="M1102 483q0 -220 -104 -346q-113 -137 -328 -137h-533v1493h252v-596h277q189 0 311 -112q125 -115 125 -302zM840 465q0 82 -50 138q-53 59 -133 59h-268v-426h262q189 0 189 229z" />
    <glyph glyph-name="Ereversedcyrillic" horiz-adv-x="1212" 
d="M1155 733q0 -325 -102 -522q-134 -258 -428 -258q-249 0 -399 155q-148 152 -148 402h244q0 -102 51 -186q77 -127 241 -127q125 0 201 134q69 121 74 304h-393v235h393q-16 154 -74 263q-78 147 -209 147q-152 0 -229 -113q-50 -74 -60 -180h-239q0 268 177 413
q144 118 339 118q297 0 443 -257q118 -208 118 -528z" />
    <glyph glyph-name="IUcyrillic" horiz-adv-x="1821" 
d="M1757 735q0 -316 -133 -529q-158 -253 -455 -253q-276 0 -429 226q-124 182 -153 482h-220v-661h-252v1493h252v-596h234q28 268 162 433q152 188 406 188q297 0 455 -253q133 -213 133 -530zM1495 735q0 208 -62 339q-83 175 -264 175q-182 0 -265 -174
q-62 -130 -62 -340t62 -340q83 -174 265 -174q181 0 264 176q62 132 62 338z" />
    <glyph glyph-name="IAcyrillic" horiz-adv-x="1212" 
d="M1094 0h-252v590l-235 1l-275 -591h-295l325 639q-260 118 -260 424q0 180 94 300q103 130 279 130h619v-1493zM842 825v432h-326q-154 0 -154 -231q0 -66 41 -130q46 -71 109 -71h330z" />
    <glyph glyph-name="afii10050" horiz-adv-x="1006" 
d="M965 1257h-588v-1257h-252v1493h588v367h252v-603z" />
    <glyph glyph-name="Icyrillic" horiz-adv-x="467" 
d="M358 0h-252v1493h252v-1493z" />
    <glyph glyph-name="DJEcyrillic" horiz-adv-x="1401" 
d="M1292 408q0 -217 -149 -334q-113 -88 -307 -88q-41 0 -62 2l62 196q20 -4 30 -4q82 0 138 68q53 64 53 147v195q0 190 -201 190q-78 0 -157 -42q-93 -49 -93 -122v-616h-252v1257h-329v236h979v-236h-398v-342q41 46 137 75q83 24 158 24q143 0 247 -64q144 -88 144 -272
v-270z" />
    <glyph glyph-name="djecyrillic" horiz-adv-x="1112" 
d="M1032 190q0 -263 -43 -396q-72 -222 -282 -222q-45 0 -146 47l41 217q75 -35 105 -35q90 0 90 269v409q0 176 -148 176q-73 0 -123 -53q-60 -64 -60 -178v-424h-230v1051h-209v209h209v233h219v-233h415v-209h-415v-328q88 162 278 162q120 0 202 -71q97 -84 97 -247
v-377z" />
    <glyph glyph-name="GJEcyrillic" horiz-adv-x="1006" 
d="M903 1970l-278 -397h-152l156 397h274zM965 1257h-588v-1257h-252v1493h840v-236z" />
    <glyph glyph-name="gjecyrillic" horiz-adv-x="854" 
d="M674 1532l-213 -307h-117l119 307h211zM813 889h-473v-889h-234v1110h707v-221z" />
    <glyph glyph-name="icyrillic" horiz-adv-x="467" 
d="M348 1237h-235v256h235v-256zM348 0h-235v1110h235v-1110z" />
    <glyph glyph-name="afii10098" horiz-adv-x="854" 
d="M813 889h-473v-889h-234v1110h472v313h235v-534z" />
    <glyph glyph-name="JEcyrillic" 
d="M817 356q0 -175 -109 -290t-284 -115q-190 0 -290 123q-93 113 -93 307v170h252v-189q0 -172 125 -172q147 0 147 168v1135h252v-1137z" />
    <glyph glyph-name="Ecyrillic" horiz-adv-x="1212" 
d="M1151 510q0 -236 -140 -393q-145 -163 -378 -164q-287 -2 -433 237q-126 205 -126 543q0 318 117 525q147 260 444 260q192 0 330 -117q186 -158 186 -414h-240q-9 95 -59 167q-75 108 -215 108q-134 0 -227 -132q-84 -119 -84 -260h407v-256h-407q0 -158 74 -269
q84 -128 235 -128q133 0 204 81q68 77 68 212h244z" />
    <glyph glyph-name="ecyrillic" 
d="M877 387q0 -99 -60 -211q-89 -166 -214 -206q-53 -17 -150 -17q-214 0 -317 195q-81 153 -81 384q0 575 422 596q143 7 227 -52q79 -55 131 -190q42 -109 42 -190h-226q-23 119 -72 158q-32 25 -100 25q-73 0 -124 -65q-48 -61 -48 -136h255v-236l-261 -2q0 -92 44 -165
q51 -85 136 -85q61 0 94 28q52 44 76 169h226z" />
    <glyph glyph-name="YIcyrillic" horiz-adv-x="467" 
d="M481 1638h-184v250h184v-250zM170 1638h-184v250h184v-250zM358 0h-252v1493h252v-1493z" />
    <glyph glyph-name="yicyrillic" horiz-adv-x="553" 
d="M553 1237h-236v256h236v-256zM246 1237h-236v256h236v-256zM389 0h-235v1110h235v-1110z" />
    <glyph glyph-name="LJEcyrillic" horiz-adv-x="1782" 
d="M1722 483q0 -221 -103 -347q-113 -136 -329 -136h-471v1257h-295v-798q0 -206 -85 -331q-99 -144 -296 -144q-65 0 -102 36v218q29 -17 72 -17q106 0 141 135q18 70 18 224v913h799v-596h215q190 0 311 -111q125 -115 125 -303zM1460 465q0 82 -51 139.5t-131 57.5h-207
v-426h201q188 0 188 229z" />
    <glyph glyph-name="ljecyrillic" horiz-adv-x="1434" 
d="M1372 354q0 -180 -126 -272q-111 -82 -296 -82h-297v889h-227v-543q0 -139 -70 -242q-80 -118 -213 -118q-71 0 -114 12v227q23 -10 61 -10q100 0 100 168v727h699v-422h129q162 0 256 -85q98 -88 98 -249zM1151 342q0 174 -174 174h-88v-334h98q164 0 164 160z" />
    <glyph glyph-name="NJEcyrillic" horiz-adv-x="1782" 
d="M1712 483q0 -220 -104 -346q-113 -137 -328 -137h-471v662h-442v-662h-252v1493h252v-596h442v596h252v-596h215q189 0 311 -112q125 -115 125 -302zM1450 465q0 82 -50.5 139.5t-131.5 57.5h-207v-426h201q188 0 188 229z" />
    <glyph glyph-name="njecyrillic" horiz-adv-x="1434" 
d="M1360 354q0 -180 -126 -272q-111 -82 -296 -82h-297v496h-301v-496h-234v1110h234v-424h301v424h236v-422h129q161 0 256 -85q98 -89 98 -249zM1139 342q0 154 -174 154h-88v-306h98q164 0 164 152z" />
    <glyph glyph-name="jecyrillic" horiz-adv-x="467" 
d="M352 1237h-235v256h235v-256zM352 -207q0 -74 -33 -137q-39 -73 -104 -88q-76 -17 -209 -17v216q6 0 18.5 -1.5t18.5 -1.5q74 0 74 80v1266h235v-1317z" />
    <glyph glyph-name="DZEcyrillic" horiz-adv-x="1120" 
d="M1063 446q0 -493 -537 -493q-209 0 -338 142q-122 134 -135 347h246q0 -114 74 -188t188 -74q108 0 180 53q80 60 80 164q0 109 -73 164q-52 40 -178 69q-229 54 -269 70q-225 94 -225 369q0 216 124 333q121 116 339 116q290 0 413 -191q72 -112 72 -254q0 -26 -2 -35
h-236v4q0 110 -70.5 181t-180.5 71q-224 0 -224 -200q0 -142 146 -191q48 -16 239 -59q180 -41 267 -125q100 -98 100 -273z" />
    <glyph glyph-name="TSHEcyrillic" horiz-adv-x="1251" 
d="M1180 0h-236v702q0 67 -45 119q-47 56 -118 56q-53 0 -119 -59q-58 -52 -86 -107v-711h-252v1257h-299v236h979v-236h-428v-247q42 46 128 74q75 24 147 24q143 0 236 -89t93 -228v-791z" />
    <glyph glyph-name="tshecyrillic" horiz-adv-x="1112" 
d="M1032 0h-235v479q0 176 -148 176q-86 0 -135 -75q-43 -65 -43 -156v-424h-235v1051h-207v209h207v233h219v-233h413v-209h-413v-328q88 162 278 162q139 0 221 -90q78 -86 78 -228v-567z" />
    <glyph glyph-name="KJEcyrillic" horiz-adv-x="1212" 
d="M952 1970l-278 -397h-152l156 397h274zM377 0h-252v1493h252v-596h72l415 596h291l-485 -682l534 -811h-303l-424 661h-100v-661z" />
    <glyph glyph-name="kjecyrillic" 
d="M748 1532l-213 -307h-117l119 307h211zM334 0h-236v1110h236v-424h67l248 424h260l-291 -479l310 -631h-269l-233 496h-92v-496z" />
    <glyph glyph-name="dzecyrillic" 
d="M872 346q0 -393 -417 -393q-177 0 -287 97q-114 101 -119 276h232q46 -181 204 -181q60 0 104 49q40 44 40 91q0 94 -97 127l-237 80q-213 72 -213 280q0 356 379 356q173 0 281 -102t108 -274h-227q-7 180 -177 180q-52 0 -93 -36q-44 -38 -44 -89q0 -81 56 -100
l294 -99q78 -26 138 -89q75 -78 75 -173z" />
    <glyph glyph-name="Ushortcyrillic" horiz-adv-x="1120" 
d="M1085 1493l-380 -1096q-95 -273 -208 -351q-64 -44 -171 -58q-15 -2 -35 -2q-57 0 -123 18v258q81 -20 127 -20q19 0 31 4q57 19 99 74t42 114q0 21 -8 41l-398 1018h283l248 -717l209 717h284zM930 1876q0 -141 -111 -211q-91 -57 -241 -57q-147 0 -241 59
q-112 70 -112 209h219q0 -109 134 -109q133 0 133 109h219z" />
    <glyph glyph-name="ushortcyrillic" 
d="M813 1493q0 -141 -111 -211q-91 -57 -241 -57q-148 0 -241 58q-111 71 -111 210h219q0 -53 41 -83q37 -26 92 -26q133 0 133 109h219zM903 1110l-385 -1339q-40 -141 -142 -187q-72 -33 -235 -33v209q13 -2 39 -2q74 0 119 55q43 51 43 126q0 33 -8 61l-320 1110h260
l197 -807l191 807h241z" />
    <glyph glyph-name="DZHEcyrillic" horiz-adv-x="1212" 
d="M1098 0h-371v-348h-252v348h-366v1493h251v-1237h486v1237h252v-1493z" />
    <glyph glyph-name="dzhecyrillic" horiz-adv-x="1024" 
d="M911 -6h-293v-268h-235v268h-283v1110h234v-868h342v868h235v-1110z" />
    <glyph glyph-name="numero" horiz-adv-x="2048" 
d="M1929 729q0 -147 -100 -250t-246 -104t-246 103.5t-100 250.5t100 251t246 105q147 0 246.5 -104.5t99.5 -251.5zM1915 0h-651v225h651v-225zM1110 0h-248l-495 1040v-1040h-252v1493h247l496 -1026v1026h252v-1493zM1731 729q0 62 -43 107t-105 45t-104.5 -45
t-42.5 -107t42.5 -106.5t104.5 -44.5t105 44.5t43 106.5z" />
    <glyph glyph-name="IOcyrillic" horiz-adv-x="1120" 
d="M844 1638h-187v250h187v-250zM530 1638h-184v250h184v-250zM1049 0h-916v1493h887v-236h-635v-360h586v-235h-586v-426h664v-236z" />
    <glyph glyph-name="iocyrillic" horiz-adv-x="971" 
d="M719 1247h-184v250h184v-250zM408 1247h-185v250h185v-250zM903 541q0 -9 -1 -28t-1 -28h-606v-69q0 -94 49 -168q56 -84 143 -84q57 0 108.5 46t63.5 103h232q-31 -164 -140 -260q-112 -100 -276 -100q-211 0 -323 179q-95 152 -95 376q0 256 82 414q107 206 338 206
q233 0 346 -219q80 -155 80 -368zM657 657q0 92 -32 158q-46 94 -142 94t-147 -86q-41 -70 -41 -166h362z" />
    <glyph glyph-name="iacyrillic" horiz-adv-x="1016" 
d="M907 0h-235v412h-155l-214 -412h-266l265 465q-218 78 -218 305q0 283 318 331q60 9 206 9h299v-1110zM672 607v296h-149q-199 0 -199 -137q0 -100 58 -134q42 -25 145 -25h145z" />
    <glyph glyph-name="acyrillic" 
d="M881 0h-250q-25 42 -25 100v11q-131 -158 -289 -158q-137 0 -208 95q-64 84 -64 226q0 158 72 239q54 61 183 103l245 80q59 25 59 111q0 135 -143 135q-156 0 -166 -201h-221q0 387 377 387q376 0 376 -352v-606q0 -74 54 -131v-39zM604 438v105q-65 -38 -217 -80
q-43 -12 -74.5 -54t-31.5 -87q0 -156 116 -156q207 0 207 272z" />
    <glyph glyph-name="becyrillic" horiz-adv-x="1024" 
d="M956 541q0 -244 -99 -401q-119 -187 -349 -187q-449 0 -449 674q0 346 19 434q41 192 155 299q123 115 314 115q137 0 137 67h217q0 -293 -375 -293q-106 0 -182 -85.5t-78 -192.5h8q99 129 275 129q209 0 318 -183q89 -151 89 -376zM719 541q0 167 -74 263
q-61 79 -137 79q-79 0 -139 -77q-74 -94 -74 -265q0 -172 74 -266q60 -76 139 -76t137 73q74 92 74 269z" />
    <glyph glyph-name="vecyrillic" horiz-adv-x="1010" 
d="M940 330q0 -133 -76 -224q-88 -106 -246 -106h-516v1110h492q132 0 217.5 -79t85.5 -210q0 -54 -38 -123q-42 -75 -97 -102q83 -13 133 -100q45 -76 45 -166zM651 795q0 127 -137 127h-176v-252h170q143 0 143 125zM694 346q0 133 -155 133h-201v-289h197q159 0 159 156z
" />
    <glyph glyph-name="gecyrillic" horiz-adv-x="854" 
d="M813 889h-473v-889h-234v1110h707v-221z" />
    <glyph glyph-name="decyrillic" horiz-adv-x="1057" 
d="M1032 -274h-235v274h-525v-274h-235v495h82q135 236 135 889h690v-889h88v-495zM709 221v668h-234q0 -454 -108 -668h342z" />
    <glyph glyph-name="iecyrillic" horiz-adv-x="971" 
d="M903 541q0 -9 -1 -28t-1 -28h-606v-69q0 -94 49 -168q56 -84 143 -84q57 0 108.5 46t63.5 103h232q-31 -164 -140 -260q-112 -100 -276 -100q-211 0 -323 179q-95 152 -95 376q0 256 82 414q107 206 338 206q233 0 346 -219q80 -155 80 -368zM657 657q0 92 -32 158
q-46 94 -142 94t-147 -86q-41 -70 -41 -166h362z" />
    <glyph glyph-name="zhecyrillic" horiz-adv-x="1415" 
d="M1413 0h-268l-213 496h-92v-496h-219v496h-93l-213 -496h-268l289 631l-270 479h260l227 -424h68v424h219v-424h67l228 424h260l-271 -479z" />
    <glyph glyph-name="zecyrillic" 
d="M852 358q0 -403 -385 -403q-164 0 -283 101q-124 105 -129 266h234q39 -156 180 -156q65 0 107 50t42 116q0 59 -41.5 103t-99.5 44h-92v197h82q127 0 127 127q0 117 -148 117q-109 0 -139 -136h-227q0 162 114 256q105 88 271 88q157 0 255 -73q109 -82 109 -234
q0 -59 -41 -128q-47 -79 -112 -97q75 -8 127 -87q49 -73 49 -151z" />
    <glyph glyph-name="iicyrillic" horiz-adv-x="1024" 
d="M918 0h-236v700l-342 -700h-234v1110h234v-700l342 700h236v-1110z" />
    <glyph glyph-name="iishortcyrillic" horiz-adv-x="1024" 
d="M918 0h-236v700l-342 -700h-234v1110h234v-700l342 700h236v-1110zM864 1493q0 -141 -111 -211q-91 -57 -241 -57q-148 0 -241 58q-111 71 -111 210h219q0 -53 41 -83q37 -26 92 -26q133 0 133 109h219z" />
    <glyph glyph-name="kacyrillic" 
d="M334 0h-236v1110h236v-424h67l248 424h260l-291 -479l310 -631h-269l-233 496h-92v-496z" />
    <glyph glyph-name="elcyrillic" horiz-adv-x="1047" 
d="M938 0h-236v889h-268v-543q0 -139 -70 -242q-79 -118 -212 -118q-72 0 -115 12v207q23 -10 61 -10q101 0 101 167v748h739v-1110z" />
    <glyph glyph-name="emcyrillic" horiz-adv-x="1225" 
d="M1130 0h-243v604l-201 -604h-141l-203 616v-616h-244v1112h262l256 -803l252 801h262v-1110z" />
    <glyph glyph-name="encyrillic" horiz-adv-x="1024" 
d="M918 0h-236v496h-342v-496h-234v1110h234v-424h342v424h236v-1110z" />
    <glyph glyph-name="ocyrillic" horiz-adv-x="1024" 
d="M956 541q0 -248 -98 -403q-117 -185 -350 -185q-235 0 -352 184q-97 154 -97 404q0 248 98 403q117 184 351 184q233 0 350 -185q98 -155 98 -402zM719 541q0 136 -39 231q-55 131 -172 131q-120 0 -174 -130q-39 -93 -39 -232q0 -363 213 -363q211 0 211 363z" />
    <glyph glyph-name="pecyrillic" horiz-adv-x="1024" 
d="M918 0h-236v889h-342v-889h-234v1110h812v-1110z" />
    <glyph glyph-name="ercyrillic" horiz-adv-x="1024" 
d="M965 524q0 -232 -77 -380q-99 -191 -310 -191q-149 0 -246 162v-564h-236v1559h236v-168q80 186 260 186q203 0 300 -214q73 -160 73 -390zM727 532q0 371 -197 371q-111 0 -163 -140q-35 -97 -35 -231q0 -135 35 -228q50 -134 163 -134q110 0 161 136q36 95 36 226z" />
    <glyph glyph-name="escyrillic" 
d="M877 387q-61 -434 -420 -434q-214 0 -319 192q-83 152 -83 385q0 255 94 410q115 188 353 188q193 0 296 -158q79 -122 79 -274h-226q-40 203 -176 203q-104 0 -149 -140q-29 -91 -29 -222q0 -367 184 -367q128 0 170 217h226z" />
    <glyph glyph-name="tecyrillic" 
d="M877 891h-291v-891h-236v891h-293v219h820v-219z" />
    <glyph glyph-name="ucyrillic" 
d="M903 1110l-385 -1339q-40 -141 -142 -187q-72 -33 -235 -33v209q13 -2 39 -2q74 0 119 55q43 51 43 126q0 33 -8 61l-320 1110h260l197 -807l191 807h241z" />
    <glyph glyph-name="efcyrillic" horiz-adv-x="1432" 
d="M1368 541q0 -232 -73 -385q-97 -203 -304 -203q-40 0 -82 24q-56 32 -75 89v-510h-236v510q-19 -57 -76 -89q-43 -24 -82 -24q-204 0 -302 204q-75 156 -75 384q0 224 68 378q93 209 289 209q135 0 178 -106v506h236v-506q42 106 178 106q199 0 290 -208q66 -151 66 -379
zM1131 541q0 132 -38 229q-53 133 -163 133q-31 0 -62 -21q-34 -24 -34 -53v-587q0 -24 37 -40q31 -14 59 -14q110 0 162 129q39 94 39 224zM598 242v587q0 29 -33 51.5t-63 22.5q-110 0 -163 -133q-38 -97 -38 -229q0 -130 39 -224q52 -129 162 -129q27 0 58 14
q38 17 38 40z" />
    <glyph glyph-name="khacyrillic" 
d="M899 0h-281l-153 328l-158 -328h-280l297 553l-289 557h282l148 -338l151 338h279l-297 -557z" />
    <glyph glyph-name="tsecyrillic" horiz-adv-x="1030" 
d="M1006 -274h-236v274h-666v1110h236v-889h342v889h236v-889h88v-495z" />
    <glyph glyph-name="checyrillic" horiz-adv-x="1006" 
d="M889 0h-236v430q-125 -27 -204 -27q-353 0 -353 345v362h236v-299q0 -113 22 -153q34 -62 148 -62q63 0 151 25v489h236v-1110z" />
    <glyph glyph-name="shacyrillic" horiz-adv-x="1413" 
d="M1311 0h-1207v1110h236v-889h250v889h235v-889h250v889h236v-1110z" />
    <glyph glyph-name="shchacyrillic" horiz-adv-x="1421" 
d="M1397 -274h-236v274h-1057v1110h236v-889h250v889h235v-889h250v889h236v-889h86v-495z" />
    <glyph glyph-name="hardsigncyrillic" horiz-adv-x="1098" 
d="M1036 354q0 -180 -126 -272q-111 -82 -296 -82h-338v889h-225v221h461v-422h170q162 0 256 -85q98 -88 98 -249zM801 342q0 154 -174 154h-115v-306h125q164 0 164 152z" />
    <glyph glyph-name="yericyrillic" horiz-adv-x="1343" 
d="M1229 0h-236v1110h236v-1110zM872 354q0 -179 -125 -272q-111 -82 -296 -82h-338v1110h235v-422h170q162 0 256 -85q98 -88 98 -249zM637 342q0 154 -174 154h-115v-306h125q164 0 164 152z" />
    <glyph glyph-name="softsigncyrillic" 
d="M872 354q0 -179 -125 -272q-111 -82 -296 -82h-338v1110h235v-422h170q162 0 256 -85q98 -88 98 -249zM637 342q0 154 -174 154h-115v-306h125q164 0 164 152z" />
    <glyph glyph-name="ereversedcyrillic" 
d="M879 530q0 -233 -83 -385q-105 -192 -319 -192q-359 0 -420 434h226q42 -217 170 -217q167 0 182 283h-277v192h273q-31 260 -172 260q-135 0 -176 -209h-226q0 152 79 274q103 158 296 158q238 0 353 -188q94 -155 94 -410z" />
    <glyph glyph-name="iucyrillic" horiz-adv-x="1427" 
d="M1358 541q0 -247 -99 -402q-117 -186 -350 -186q-216 0 -333 158q-100 136 -113 364h-131v-475h-234v1110h234v-424h139q27 199 131 314q115 128 307 128q233 0 351 -185q98 -154 98 -402zM1120 541q0 139 -38 232q-54 130 -173 130t-173 -130q-40 -94 -40 -232
q0 -136 40 -232q55 -131 173 -131q211 0 211 363z" />
    <glyph glyph-name="Euro" horiz-adv-x="1524" 
d="M1239 715h-1141l48 110h1139zM1145 495h-1047l48 110h1047zM1364 149q-173 -149 -428 -149q-280 0 -470 190t-190 470t190 470t470 190t476 -196l-48 -111q-183 197 -428 197q-230 0 -390 -160t-160 -390t160 -390t390 -160q250 0 428 201v-162z" />
    <glyph glyph-name="acutecmb" horiz-adv-x="1026" 
d="M1004 1257h-357v-1257h-252v1257h-370v236h979v-236z" />
    <glyph glyph-name="brevecmb" horiz-adv-x="1026" 
d="M1004 1257h-357v-1257h-252v1257h-370v236h979v-236z" />
    <glyph glyph-name="dieresiscmb" horiz-adv-x="1026" 
d="M1004 1257h-357v-1257h-252v1257h-370v236h979v-236z" />
    <glyph glyph-name="soliduslongoverlaycmb" horiz-adv-x="467" 
d="M358 0h-252v299h252v-299z" />
  </font>
</defs>
</svg>
